# This file uses centimeters as units for non-parametric coordinates.

mtllib rock1.mtl
g default
v -0.628679 0.321375 -0.442356
v -1.201076 -0.218499 0.555880
v 0.130826 0.198766 1.031673
v 0.318156 -0.152393 0.820768
v 0.692331 0.135871 -0.498119
v 0.973740 0.368046 -1.256525
v -0.648297 0.096668 -1.124364
v 0.579261 1.291138 -0.606866
v 1.329227 1.567092 -0.621284
v 0.108160 0.818177 0.300016
v 1.500935 1.951694 0.285655
v 1.160873 0.757069 0.481698
v 2.197025 1.874320 0.487966
v 1.323748 0.462277 0.503022
v 2.442763 1.422121 0.498911
v 2.492034 1.061140 -0.674918
v 2.048345 1.295406 -0.086104
v 1.812159 1.355668 -1.474312
v 2.253444 1.426275 -1.576460
v 1.178743 1.158712 -1.422993
v 2.178570 2.158546 -1.158614
v -1.112446 0.002542 0.061641
v -0.595034 -0.021641 0.955662
v 0.202166 -0.049187 1.065664
v 0.413528 -0.114880 0.299816
v 0.820009 0.235257 -0.918556
v 0.064569 0.173471 -1.274870
v -0.859900 0.117582 -0.842054
v -0.054889 0.774559 -0.537279
v 0.983933 1.502852 -0.669275
v -0.690733 0.252525 0.522259
v 0.842911 1.440890 0.275883
v 0.285811 1.084201 -0.139160
v 1.343435 1.716680 -0.223060
v 0.592755 0.418354 0.764533
v 1.827572 1.481069 0.502281
v 0.631528 0.799234 0.439367
v 1.949652 1.996884 0.441462
v 0.811506 0.068803 0.726987
v 2.005091 0.982087 0.486297
v 1.238208 0.566079 0.572359
v 2.400760 1.731731 0.549807
v 1.650619 0.617944 -0.643631
v 2.399908 1.174494 -0.415834
v 1.983951 0.769215 -0.068707
v 2.394366 1.415456 0.274093
v 1.486763 0.848134 -1.429436
v 2.129839 1.465138 -1.677278
v 2.145161 1.173973 -1.181346
v 2.206458 1.334938 -1.017425
v 0.130662 0.524743 -1.406108
v 1.776399 1.779512 -1.316630
v 1.647307 1.361024 -1.508909
v 2.272969 1.811822 -1.488544
v 0.883541 1.260941 -1.038268
v 1.685813 1.825829 -0.883390
v 2.213469 1.723684 0.336431
v 1.806055 1.708362 0.159452
v 1.639425 1.461558 -0.393500
v 2.132250 1.743756 -0.721785
v -1.108666 -0.135097 -0.434845
v -0.149666 -0.012789 -0.446439
v -0.278862 -0.133180 0.044254
v -0.415027 -0.256002 0.819883
v -0.411788 0.517684 -0.032611
v 0.955435 1.636806 -0.138408
v 0.022740 0.455613 0.740229
v 1.335490 1.420294 0.418455
v 0.712676 0.277609 0.873487
v 1.889889 1.119116 0.549065
v 1.064732 0.255171 0.010058
v 2.556588 1.245508 0.016635
v 1.336784 0.733355 -1.081699
v 2.408857 1.228512 -1.306144
v 1.194384 0.767278 -1.496858
v 2.076813 1.859484 -1.441892
v 0.154140 0.693609 -0.987225
v 1.403664 1.776937 -0.952146
v 2.383085 1.653838 0.419258
v 2.022197 1.865961 0.332582
v 1.580360 1.596372 -0.128375
v 1.854263 1.683691 -0.656639
v 2.231367 1.658260 -1.079311
v -1.206371 -0.079363 -0.360390
v -0.466796 -0.034652 -0.706644
v 0.107811 0.000356 -0.420783
v -0.185580 -0.211727 0.412567
v -0.354670 -0.159173 1.025246
v -0.785007 0.240522 0.226520
v -0.107915 0.769373 -0.247271
v 0.717290 1.447593 0.023623
v 1.055966 1.629407 -0.348995
v -0.480520 0.236291 0.774133
v 0.412248 0.538014 0.653640
v 0.932966 1.220466 0.376922
v 1.713480 1.671868 0.465261
v 0.626556 0.100671 0.950929
v 0.825415 0.393916 0.742699
v 1.707020 0.864245 0.552656
v 2.074367 1.459746 0.551937
v 0.795646 0.048117 0.338250
v 1.557280 0.514381 -0.260297
v 2.269796 1.037264 0.162339
v 2.490055 1.273235 -0.016514
v 1.248001 0.600331 -1.201837
v 1.716244 0.854511 -0.967033
v 2.278781 1.295772 -1.461273
v 2.340077 1.191612 -0.933391
v 0.524667 0.493220 -1.483653
v 1.518161 1.009137 -1.514421
v 1.877695 1.729965 -1.425537
v 2.170072 1.762420 -1.607193
v -0.214908 0.448509 -1.137400
v 0.315488 0.893301 -0.860905
v 1.414596 1.658841 -1.118275
v 1.329869 1.716726 -0.877259
vt 0.198062 0.099031
vt 0.643104 0.000000
vt 1.000000 0.277479
vt 1.000000 0.722521
vt 0.643104 1.000000
vt 0.198062 0.900969
vt 0.000000 0.500000
vt 0.198062 0.099031
vt 0.643104 0.000000
vt 1.000000 0.277479
vt 1.000000 0.722521
vt 0.643104 1.000000
vt 0.198062 0.900969
vt 0.000000 0.500000
vt 0.198062 0.099031
vt 0.318837 0.259419
vt 0.643104 0.000000
vt 0.585863 0.200000
vt 1.000000 0.277479
vt 0.800000 0.366487
vt 1.000000 0.722521
vt 0.800000 0.633513
vt 0.643104 1.000000
vt 0.585863 0.800000
vt 0.198062 0.900969
vt 0.318837 0.740581
vt 0.000000 0.500000
vt 0.200000 0.500000
vt 0.728621 0.600000
vt 0.657242 0.455496
vt 0.496854 0.419806
vt 0.368233 0.519806
vt 0.368233 0.680194
vt 0.280389 0.199677
vt 0.280389 0.466990
vt 0.494757 0.633656
vt 0.762069 0.574174
vt 0.881035 0.333333
vt 0.494757 0.033010
vt 0.346410 0.066021
vt 0.475676 0.099677
vt 0.367587 0.186150
vt 0.762069 0.092493
vt 0.881035 0.184986
vt 0.742989 0.159160
vt 0.795288 0.281322
vt 1.000000 0.574174
vt 1.000000 0.425826
vt 0.933333 0.544504
vt 0.866667 0.425826
vt 0.881035 0.815014
vt 0.762069 0.907507
vt 0.814368 0.785345
vt 0.676322 0.811171
vt 0.346410 0.933979
vt 0.494757 0.966990
vt 0.386668 0.880517
vt 0.515935 0.846860
vt 0.066021 0.633656
vt 0.132042 0.767313
vt 0.132687 0.633656
vt 0.238967 0.713850
vt 0.066021 0.366344
vt 0.132042 0.232687
vt 0.132687 0.366344
vt 0.238967 0.286150
vt 0.692931 0.716756
vt 0.692931 0.583244
vt 0.800000 0.500000
vt 0.585863 0.500000
vt 0.692931 0.283244
vt 0.452350 0.529709
vt 0.452350 0.229709
vt 0.392931 0.650000
vt 0.259419 0.379709
vt 0.452350 0.770291
vt 0.259419 0.620291
vt 0.099031 0.299516
vt 0.321552 0.250000
vt 0.420583 0.049516
vt 0.099031 0.700484
vt 0.420583 0.450484
vt 0.420583 0.950484
vt 0.643104 0.500000
vt 0.821552 0.861260
vt 0.821552 0.361260
vt 1.000000 0.500000
vt 0.821552 0.138740
vt 0.643104 0.000000
vt 0.420583 0.049516
vt 0.420583 0.049516
vt 0.420583 0.049516
vt 0.198062 0.099031
vt 0.614483 0.100000
vt 0.391962 0.149516
vt 0.258450 0.179225
vt 0.821552 0.138740
vt 0.821552 0.138740
vt 1.000000 0.277479
vt 0.821552 0.138740
vt 0.792931 0.238740
vt 0.900000 0.321983
vt 1.000000 0.722521
vt 1.000000 0.500000
vt 1.000000 0.500000
vt 1.000000 0.500000
vt 0.900000 0.678017
vt 0.900000 0.455496
vt 0.821552 0.861260
vt 0.821552 0.861260
vt 0.643104 1.000000
vt 0.821552 0.861260
vt 0.721552 0.816756
vt 0.614483 0.900000
vt 0.198062 0.900969
vt 0.420583 0.950484
vt 0.420583 0.950484
vt 0.420583 0.950484
vt 0.258450 0.820775
vt 0.480971 0.870291
vt 0.000000 0.500000
vt 0.099031 0.700484
vt 0.099031 0.700484
vt 0.099031 0.700484
vt 0.100000 0.500000
vt 0.199031 0.700484
vt 0.099031 0.299516
vt 0.099031 0.299516
vt 0.099031 0.299516
vt 0.199031 0.299516
vn 0.501238 0.706574 -0.499514
vn 0.451334 0.872272 -0.188255
vn 0.444129 0.554561 -0.703712
vn 0.717100 0.431870 -0.547043
vn 0.076755 0.504273 0.860126
vn 0.292456 0.261465 0.919840
vn 0.621917 -0.372944 0.688572
vn 0.373104 0.670338 -0.641436
vn 0.290940 0.620870 -0.727924
vn -0.217707 0.905299 0.364743
vn -0.068255 0.797384 0.599599
vn 0.195659 0.960662 0.197093
vn 0.489255 0.739180 -0.462863
vn -0.074834 0.975928 0.204851
vn 0.103543 0.918597 -0.381390
vn 0.698380 0.500687 0.511448
vn -0.100485 0.792914 0.600992
vn 0.557806 0.814815 0.157887
vn -0.165404 0.796629 0.581398
vn 0.916836 0.365870 0.159848
vn 0.985505 0.036440 -0.165686
vn 0.967416 0.221022 -0.123510
vn 0.986272 0.044761 0.158949
vn -0.651630 0.712272 -0.260856
vn -0.306145 -0.655986 -0.689897
vn -0.049028 -0.983026 -0.176795
vn -0.766466 0.635530 -0.092912
vn -0.419187 -0.898795 0.128257
vn -0.734525 0.677810 0.032351
vn -0.568571 0.815927 -0.104829
vn 0.105549 -0.881643 -0.459962
vn 0.307301 -0.833996 -0.458276
vn 0.121964 -0.979173 -0.162313
vn 0.119069 -0.977992 -0.171331
vn 0.387037 -0.910801 -0.143680
vn 0.331488 -0.927282 -0.173963
vn 0.044084 -0.973758 -0.223277
vn 0.123779 -0.966732 -0.223848
vn 0.239504 -0.959382 -0.149079
vn 0.261176 -0.952846 0.154506
vn -0.031349 -0.990791 0.131717
vn 0.073572 -0.985626 -0.152080
vn 0.154916 -0.453526 0.877676
vn -0.082819 0.498480 0.862936
vn -0.480577 0.226132 0.847296
vn -0.098854 -0.494464 0.863558
vn -0.544372 0.766098 0.341690
vn -0.464262 0.773625 0.431238
vn -0.590209 0.805669 0.050517
vn -0.599656 0.795880 0.083591
vn -0.636038 0.767908 0.075982
vn -0.625437 0.779579 0.032934
vn -0.606142 0.746412 -0.274703
vn -0.622603 0.741556 -0.249920
vn -0.493316 0.619263 0.610863
vn -0.525557 0.850086 -0.033821
vn -0.631558 0.766141 0.119006
vn -0.311737 0.905336 -0.288419
vn -0.377571 0.923842 -0.062902
vn -0.236920 0.751022 0.616307
vn -0.392058 0.712283 0.582189
vn 0.042455 0.665611 0.745090
vn -0.038982 0.716940 0.696044
vn -0.090593 0.283332 0.954734
vn -0.134005 0.470582 0.872121
vn -0.211988 0.217638 0.952730
vn -0.189753 0.249835 0.949514
vn -0.158514 0.125368 0.979365
vn -0.234691 0.218551 0.947183
vn 0.581774 -0.765721 0.274244
vn 0.564464 -0.785076 0.255019
vn 0.421511 0.174191 0.889936
vn 0.435608 -0.318409 0.841939
vn 0.155908 0.186979 0.969913
vn 0.225694 0.435886 0.871244
vn 0.553856 -0.687298 0.469963
vn -0.021294 0.001616 0.999772
vn 0.059504 -0.056695 0.996617
vn -0.038775 0.042901 0.998327
vn 0.481808 -0.874905 -0.049003
vn 0.497547 -0.865688 -0.055060
vn 0.424337 -0.862304 -0.276349
vn 0.467808 -0.883523 -0.023292
vn 0.657528 -0.730821 -0.183190
vn 0.543516 -0.832538 0.107103
vn 0.758214 -0.621912 0.195799
vn 0.619678 -0.739922 0.261754
vn 0.416154 0.905436 -0.083672
vn 0.211277 0.928022 -0.306818
vn 0.717758 -0.650764 -0.247650
vn 0.141882 -0.586953 -0.797092
vn 0.522817 -0.789663 -0.321085
vn 0.712932 -0.699309 0.051914
vn 0.252349 -0.825860 -0.504258
vn 0.353651 -0.773424 -0.526066
vn -0.271321 -0.272992 -0.922963
vn 0.864180 -0.445471 -0.233983
vn 0.019520 -0.871697 -0.489657
vn 0.558075 0.825642 0.082873
vn -0.446001 0.491959 -0.747703
vn -0.411829 0.498847 -0.762594
vn 0.024358 -0.145930 -0.988995
vn 0.015211 -0.251875 -0.967640
vn -0.198486 0.281906 -0.938686
vn 0.033595 -0.071022 -0.996909
vn -0.476163 0.638478 -0.604660
vn -0.361582 0.594776 -0.717984
vn -0.303453 0.460573 -0.834140
vn -0.230334 0.422381 -0.876664
vn -0.528594 0.780006 -0.334931
vn -0.521430 0.806641 -0.278284
vn -0.573618 0.670277 -0.470840
vn -0.561306 0.652249 -0.509419
vn -0.530734 0.805244 -0.264392
vn -0.541092 0.649985 -0.533610
vn -0.299816 0.859210 0.414571
s 1
g bolder8 bolderGroup2
usemtl initialShadingGroup
f 46/67/1 17/24/2 57/68/3 79/29/4
f 57/68/3 13/20/5 42/69/6 79/29/4
f 42/69/6 15/22/7 46/67/1 79/29/4
f 57/68/3 17/24/2 58/70/8 80/30/9
f 58/70/8 11/18/10 38/71/11 80/30/9
f 38/71/11 13/20/5 57/68/3 80/30/9
f 58/70/8 17/24/2 59/72/12 81/31/13
f 59/72/12 9/16/14 34/73/15 81/31/13
f 34/73/15 11/18/10 58/70/8 81/31/13
f 59/72/12 17/24/2 60/74/16 82/32/17
f 60/74/16 21/28/18 56/75/19 82/32/17
f 56/75/19 9/16/14 59/72/12 82/32/17
f 50/76/20 19/26/21 54/77/22 83/33/23
f 54/77/22 21/28/18 60/74/16 83/33/23
f 60/74/16 17/24/2 50/76/20 83/33/23
f 28/78/24 7/14/25 61/79/26 84/34/27
f 61/79/26 2/9/28 22/80/29 84/34/27
f 22/80/29 1/8/30 28/78/24 84/34/27
f 27/81/31 6/13/32 62/82/33 85/35/34
f 62/82/33 2/9/28 61/79/26 85/35/34
f 61/79/26 7/14/25 27/81/31 85/35/34
f 26/83/35 5/12/36 63/84/37 86/36/38
f 63/84/37 2/9/28 62/82/33 86/36/38
f 62/82/33 6/13/32 26/83/35 86/36/38
f 25/85/39 4/11/40 64/86/41 87/37/42
f 64/86/41 2/9/28 63/84/37 87/37/42
f 63/84/37 5/12/36 25/85/39 87/37/42
f 24/87/43 3/10/44 23/88/45 88/38/46
f 23/88/45 2/9/28 64/86/41 88/38/46
f 64/86/41 4/11/40 24/87/43 88/38/46
f 31/89/47 10/17/48 65/90/49 89/39/50
f 65/90/49 1/1/30 22/91/29 89/39/50
f 22/91/29 2/2/28 31/89/47 89/39/50
f 65/90/49 10/17/48 33/92/51 90/40/52
f 33/92/51 8/15/53 29/93/54 90/40/52
f 29/93/54 1/1/30 65/90/49 90/40/52
f 32/94/55 11/18/10 66/95/56 91/41/57
f 66/95/56 8/15/53 33/92/51 91/41/57
f 33/92/51 10/17/48 32/94/55 91/41/57
f 66/95/56 11/18/10 34/73/15 92/42/58
f 34/73/15 9/16/14 30/96/59 92/42/58
f 30/96/59 8/15/53 66/95/56 92/42/58
f 23/97/45 3/3/44 67/98/60 93/43/61
f 67/98/60 10/17/48 31/89/47 93/43/61
f 31/89/47 2/2/28 23/97/45 93/43/61
f 67/98/60 3/3/44 35/99/62 94/44/63
f 35/99/62 12/19/64 37/100/65 94/44/63
f 37/100/65 10/17/48 67/98/60 94/44/63
f 37/100/65 12/19/64 68/101/66 95/45/67
f 68/101/66 11/18/10 32/94/55 95/45/67
f 32/94/55 10/17/48 37/100/65 95/45/67
f 68/101/66 12/19/64 36/102/68 96/46/69
f 36/102/68 13/20/5 38/71/11 96/46/69
f 38/71/11 11/18/10 68/101/66 96/46/69
f 39/103/70 14/21/71 69/104/72 97/47/73
f 69/104/72 3/3/44 24/105/43 97/47/73
f 24/105/43 4/4/40 39/103/70 97/47/73
f 69/104/72 14/21/71 41/106/74 98/48/75
f 41/106/74 12/19/64 35/99/62 98/48/75
f 35/99/62 3/3/44 69/104/72 98/48/75
f 40/107/76 15/22/7 70/108/77 99/49/78
f 70/108/77 12/19/64 41/106/74 99/49/78
f 41/106/74 14/21/71 40/107/76 99/49/78
f 70/108/77 15/22/7 42/69/6 100/50/79
f 42/69/6 13/20/5 36/102/68 100/50/79
f 36/102/68 12/19/64 70/108/77 100/50/79
f 25/109/39 5/5/36 71/110/80 101/51/81
f 71/110/80 14/21/71 39/103/70 101/51/81
f 39/103/70 4/4/40 25/109/39 101/51/81
f 71/110/80 5/5/36 43/111/82 102/52/83
f 43/111/82 16/23/84 45/112/85 102/52/83
f 45/112/85 14/21/71 71/110/80 102/52/83
f 45/112/85 16/23/84 72/113/86 103/53/87
f 72/113/86 15/22/7 40/107/76 103/53/87
f 40/107/76 14/21/71 45/112/85 103/53/87
f 72/113/86 16/23/84 44/114/88 104/54/89
f 44/114/88 17/24/2 46/67/1 104/54/89
f 46/67/1 15/22/7 72/113/86 104/54/89
f 47/115/90 18/25/91 73/116/92 105/55/93
f 73/116/92 5/5/36 26/117/35 105/55/93
f 26/117/35 6/6/32 47/115/90 105/55/93
f 73/116/92 18/25/91 49/118/94 106/56/95
f 49/118/94 16/23/84 43/111/82 106/56/95
f 43/111/82 5/5/36 73/116/92 106/56/95
f 48/119/96 19/26/21 74/120/97 107/57/98
f 74/120/97 16/23/84 49/118/94 107/57/98
f 49/118/94 18/25/91 48/119/96 107/57/98
f 74/120/97 19/26/21 50/76/20 108/58/99
f 50/76/20 17/24/2 44/114/88 108/58/99
f 44/114/88 16/23/84 74/120/97 108/58/99
f 51/121/100 20/27/101 75/122/102 109/59/103
f 75/122/102 6/6/32 27/123/31 109/59/103
f 27/123/31 7/7/25 51/121/100 109/59/103
f 75/122/102 20/27/101 53/124/104 110/60/105
f 53/124/104 18/25/91 47/115/90 110/60/105
f 47/115/90 6/6/32 75/122/102 110/60/105
f 52/125/106 21/28/18 76/126/107 111/61/108
f 76/126/107 18/25/91 53/124/104 111/61/108
f 53/124/104 20/27/101 52/125/106 111/61/108
f 76/126/107 21/28/18 54/77/22 112/62/109
f 54/77/22 19/26/21 48/119/96 112/62/109
f 48/119/96 18/25/91 76/126/107 112/62/109
f 28/127/24 1/1/30 77/128/110 113/63/111
f 77/128/110 20/27/101 51/121/100 113/63/111
f 51/121/100 7/7/25 28/127/24 113/63/111
f 77/128/110 1/1/30 29/93/54 114/64/112
f 29/93/54 8/15/53 55/129/113 114/64/112
f 55/129/113 20/27/101 77/128/110 114/64/112
f 55/129/113 8/15/53 78/130/114 115/65/115
f 78/130/114 21/28/18 52/125/106 115/65/115
f 52/125/106 20/27/101 55/129/113 115/65/115
f 78/130/114 8/15/53 30/96/59 116/66/116
f 30/96/59 9/16/14 56/75/19 116/66/116
f 56/75/19 21/28/18 78/130/114 116/66/116
